<svg width="512" height="512" xmlns="http://www.w3.org/2000/svg" viewBox="0 0 128 128" role="img" aria-label="Lumina guild seal" shape-rendering="geometricPrecision" text-rendering="geometricPrecision">
  <defs>
    <radialGradient id="wax" cx="38%" cy="28%" r="82%">
      <stop offset="0" stop-color="#fff0a8"/>
      <stop offset="0.28" stop-color="#dca53f"/>
      <stop offset="0.68" stop-color="#8d5218"/>
      <stop offset="1" stop-color="#3a1d08"/>
    </radialGradient>
    <radialGradient id="paper" cx="42%" cy="32%" r="78%">
      <stop offset="0" stop-color="#fff9da"/>
      <stop offset="0.58" stop-color="#ead49a"/>
      <stop offset="1" stop-color="#b7843b"/>
    </radialGradient>
    <linearGradient id="ink" x1="42" y1="27" x2="86" y2="95" gradientUnits="userSpaceOnUse">
      <stop offset="0" stop-color="#3b291c"/>
      <stop offset="0.46" stop-color="#130f12"/>
      <stop offset="1" stop-color="#4b2210"/>
    </linearGradient>
    <linearGradient id="ruby" x1="54" y1="96" x2="75" y2="119" gradientUnits="userSpaceOnUse">
      <stop offset="0" stop-color="#ff8068"/>
      <stop offset="0.42" stop-color="#df243c"/>
      <stop offset="1" stop-color="#680719"/>
    </linearGradient>
    <linearGradient id="rubyEdge" x1="50" y1="93" x2="80" y2="121" gradientUnits="userSpaceOnUse">
      <stop offset="0" stop-color="#fff0a1"/>
      <stop offset="0.5" stop-color="#e8aa30"/>
      <stop offset="1" stop-color="#7d3e0d"/>
    </linearGradient>
    <filter id="shadow" x="-20%" y="-20%" width="140%" height="150%">
      <feDropShadow dx="0" dy="3" stdDeviation="2.5" flood-color="#05040a" flood-opacity="0.7"/>
    </filter>
  </defs>

  <circle cx="64" cy="64" r="61" fill="#09070a"/>
  <circle cx="64" cy="64" r="58" fill="url(#wax)" stroke="#2d1608" stroke-width="4" stroke-dasharray="5 1.7" stroke-linecap="round"/>
  <circle cx="64" cy="64" r="53" fill="#1a1009" stroke="#ffe38a" stroke-width="1.5"/>
  <circle cx="64" cy="64" r="48.5" fill="url(#paper)" stroke="#774616" stroke-width="2.5"/>
  <circle cx="64" cy="64" r="43.5" fill="none" stroke="#6f4b25" stroke-width="1.5" stroke-dasharray="1.6 2.4" stroke-linecap="round" opacity="0.9"/>
  <circle cx="64" cy="64" r="39.5" fill="none" stroke="#fff0b5" stroke-width="1" opacity="0.48"/>

  <g fill="#765025" opacity="0.92">
    <path d="M64 17l2.4 4.6L71 24l-4.6 2.4L64 31l-2.4-4.6L57 24l4.6-2.4z"/>
    <path d="M64 97l2 3.8 3.8 2-3.8 2-2 3.8-2-3.8-3.8-2 3.8-2z"/>
    <path d="M17 64l4.2-2.2 2.2-4.2 2.2 4.2 4.2 2.2-4.2 2.2-2.2 4.2-2.2-4.2z"/>
    <path d="M98 64l4.2-2.2 2.2-4.2 2.2 4.2 4.2 2.2-4.2 2.2-2.2 4.2-2.2-4.2z"/>
  </g>

  <path d="M39 26h32l5 6-7 7h-5v39h15l12-16h9l-5 31H38l-6-8 8-7h4V39h-6l-5-7z" fill="#e7bd63" stroke="#6d4018" stroke-width="4.5" stroke-linejoin="round" opacity="0.9"/>
  <path d="M39 23h32l5 6-7 7h-5v39h15l12-16h9l-5 31H38l-6-8 8-7h4V36h-6l-5-7z" fill="url(#ink)" stroke="#20130d" stroke-width="2.2" stroke-linejoin="round" filter="url(#shadow)"/>
  <path d="M42 28h24l2 2.3-5 2.2h-5v47h24l5-6.5-2 11H43l3-4V32h-4.5z" fill="#fff0b5" opacity="0.24"/>
  <path d="M48 39h3.2v35H48z" fill="#d8a64d" opacity="0.46"/>

  <path d="M64 91l18 15-18 19-18-19z" fill="#12090a" stroke="#090507" stroke-width="4" stroke-linejoin="round"/>
  <path d="M64 93l15.5 13L64 122l-15.5-16z" fill="url(#rubyEdge)" stroke="#fff0a2" stroke-width="1.4" stroke-linejoin="round"/>
  <path d="M64 97l11 9-11 12-11-12z" fill="url(#ruby)" stroke="#ff8c74" stroke-width="1.2"/>
  <path d="M64 97v21l-11-12zm0 0l11 9-11 2.8z" fill="#ffd1a3" opacity="0.4"/>
  <path d="M64 108.8l11-2.8-11 12-11-12z" fill="#6f081a" opacity="0.58"/>
  <circle cx="64" cy="106" r="2.4" fill="#fff8ce"/>
</svg>
