<svg xmlns="http://www.w3.org/2000/svg" viewBox="0 0 360 108" role="img" aria-labelledby="title desc" shape-rendering="geometricPrecision">
  <title id="title">Lumina</title>
  <desc id="desc">A compact gold Lumina wordmark with a ruby accent.</desc>
  <defs>
    <linearGradient id="gold" x1="0" y1="0" x2="0" y2="1">
      <stop offset="0" stop-color="#fff4b0"/>
      <stop offset="0.28" stop-color="#ffd85f"/>
      <stop offset="0.62" stop-color="#c98713"/>
      <stop offset="1" stop-color="#8f570a"/>
    </linearGradient>
    <linearGradient id="ruby" x1="0.2" y1="0" x2="0.8" y2="1">
      <stop offset="0" stop-color="#ffb0a4"/>
      <stop offset="0.25" stop-color="#ff3b31"/>
      <stop offset="0.68" stop-color="#b30d16"/>
      <stop offset="1" stop-color="#570008"/>
    </linearGradient>
  </defs>
  <path d="M65.1314 53.91575 64.1416 70.0H17.93915V67.2427Q19.1764 67.13665 20.83785 66.906875Q22.499299999999998 66.6771 23.02955 66.465Q24.302149999999997 65.9701 24.79705 65.08635000000001Q25.29195 64.2026 25.29195 62.823949999999996V27.4386Q25.29195 26.166000000000004 24.903100000000002 25.335275000000003Q24.51425 24.504550000000002 23.02955 23.832900000000002Q21.9337 23.338 20.395975 23.037525000000002Q18.858249999999998 22.737050000000004 17.93915 22.59565V19.83835H45.4768V22.59565Q44.345600000000005 22.701700000000002 42.807875 22.896125Q41.27015 23.09055 40.13895 23.444049999999997Q38.7603 23.903599999999997 38.30075 24.875725Q37.8412 25.84785 37.8412 27.085100000000004V60.06665Q37.8412 62.39975 38.15935 63.74305Q38.4775 65.08635 39.3966 65.72265Q40.3157 66.3943 41.959475 66.58872500000001Q43.60325 66.78315 46.50195 66.78315Q49.32995 66.78315 51.998875 66.447325Q54.6678 66.1115 55.83435 64.9803Q57.6372 63.17745 59.528425 59.907575Q61.41965 56.6377 62.55085 53.91575ZM124.33245 22.59565Q123.3073 22.701700000000002 121.380725 23.072875Q119.45415 23.444049999999997 118.1462 24.363149999999997Q116.8029 25.246900000000004 116.254975 27.54465Q115.70705 29.842399999999998 115.70705 34.4379V53.1027Q115.70705 61.33925 110.12174999999999 66.35895Q104.53645 71.37865 95.34545 71.37865Q84.6344 71.37865 78.7663 66.53569999999999Q72.8982 61.692750000000004 72.8982 53.032V27.3679Q72.8982 26.130650000000003 72.420975 25.2469Q71.94375 24.363149999999997 70.60045 23.656150000000004Q69.68135 23.196600000000004 68.33805 22.913800000000002Q66.99475 22.631 66.14635 22.524950000000004V19.83835H92.44675V22.524950000000004Q91.31555 22.59565 90.149 22.790075Q88.98245 22.984500000000004 87.78055 23.373350000000002Q86.43725 23.79755 85.9777 24.78735Q85.51814999999999 25.77715 85.51814999999999 27.014400000000002V52.325Q85.51814999999999 59.78385 88.8057 63.17745Q92.09325 66.57105 98.3502 66.57105Q104.50110000000001 66.57105 108.00075000000001 62.823949999999996Q111.5004 59.07685 111.5004 51.79475V34.7914Q111.5004 30.266600000000004 110.881775 28.021875Q110.26315 25.77715 108.99055 24.787350000000004Q108.07145 24.00965 105.791375 23.373350000000002Q103.5113 22.737050000000004 102.59219999999999 22.59565V19.83835H124.33245ZM194.84550000000002 70.0H167.66135V67.2427Q168.86325 67.13665 170.61307499999998 66.8892Q172.3629 66.64175 172.9992 66.35895Q174.30715 65.8287 174.87275 64.9096Q175.43835 63.9905 175.43835 62.5765V25.1055L158.18755 69.18695H153.73345Q153.4153 68.0204 152.160375 64.5561Q150.90545 61.0918 150.12775 59.00615L137.4371 24.539900000000003V55.04695Q137.4371 59.430350000000004 138.020375 61.710425Q138.60365 63.9905 139.9116 65.051Q140.79534999999998 65.79335 143.075425 66.465Q145.3555 67.13665 146.2746 67.2427V70.0H124.7111V67.2427Q125.59485 67.13665 127.59212500000001 66.76547500000001Q129.5894 66.3943 130.862 65.4752Q132.276 64.4854 132.7709 62.134625Q133.2658 59.78385 133.2658 55.4358V30.58475Q133.2658 28.32235 132.7002 26.819975Q132.1346 25.3176 131.0034 24.43385Q129.5894 23.338 128.1047 23.01985Q126.62 22.701700000000002 125.09994999999999 22.59565V19.83835H148.1835L160.55599999999998 52.9613L170.98425 26.05995Q171.5145 24.575250000000004 172.0094 22.524950000000004Q172.5043 20.474650000000004 172.53965 19.83835H194.7748V22.59565Q193.6436 22.66635 192.40635 22.87845Q191.16910000000001 23.09055 190.03789999999998 23.444049999999997Q188.65925 23.903599999999997 188.217375 24.8934Q187.7755 25.883200000000002 187.7755 27.085100000000004V62.611850000000004Q187.7755 63.88445 188.217375 64.75052500000001Q188.65925 65.6166 190.03789999999998 66.2529Q190.7449 66.57105 192.35332499999998 66.85385Q193.96175 67.13665 194.84550000000002 67.2427ZM226.61495000000002 70.0H198.7945V67.2427Q199.74895 67.172 201.604825 67.03059999999999Q203.4607 66.8892 204.1677 66.6064Q205.47565 66.07615 205.952875 65.21007499999999Q206.4301 64.344 206.4301 63.0007V27.4386Q206.4301 26.2367 205.97055 25.3176Q205.511 24.3985 204.1677 23.832900000000002Q203.3193 23.4794 201.65785 23.108225Q199.9964 22.737050000000004 198.7945 22.59565V19.83835H226.61495000000002V22.59565Q225.55445 22.701700000000002 223.96370000000002 22.896125Q222.37295 23.09055 221.27710000000002 23.444049999999997Q219.89845 23.903599999999997 219.4389 24.875725Q218.97935 25.84785 218.97935 27.085100000000004V62.611850000000004Q218.97935 63.88445 219.45657500000002 64.785875Q219.93380000000002 65.6873 221.27710000000002 66.2529Q222.01945 66.57105 223.733925 66.87152499999999Q225.4484 67.172 226.61495000000002 67.2427ZM287.90165 22.59565Q286.91185 22.701700000000002 285.07365000000004 22.9845Q283.23545 23.2673 281.75075000000004 24.363149999999997Q280.44280000000003 25.3176 279.894875 27.633025Q279.34695 29.94845 279.34695 34.4379V70.2828H273.05465000000004L241.80525 31.50385V55.04695Q241.80525 59.430350000000004 242.38852500000002 61.710425Q242.9718 63.9905 244.27975 65.051Q245.23420000000002 65.8287 247.31985000000003 66.42965000000001Q249.40550000000002 67.0306 250.64275 67.2427V70.0H229.07925V67.2427Q230.45790000000002 67.13665 232.24307500000003 66.730125Q234.02825 66.3236 235.23015 65.4752Q236.6088 64.45005 237.121375 62.382075Q237.63395000000003 60.314099999999996 237.63395000000003 55.4358V31.6806Q237.63395000000003 29.9131 237.086025 28.340025Q236.53810000000001 26.76695 235.37155 25.63575Q234.13430000000002 24.43385 232.525875 23.744525Q230.91745 23.0552 228.86715 22.66635V19.83835H247.74405000000002L275.17565 53.77435V34.7914Q275.17565 30.266600000000004 274.5747 28.057225000000003Q273.97375 25.84785 272.6658 24.787350000000004Q271.64065 23.9743 269.6257 23.391025Q267.61075 22.80775 266.37350000000004 22.59565V19.83835H287.90165ZM344.4868 70.0H317.16125V67.2427Q319.07015 67.1013 321.65070000000003 66.55337499999999Q324.23125 66.00545 324.23125 65.1924Q324.23125 64.9096 324.178225 64.5561Q324.1252 64.2026 323.87775 63.60165L319.60040000000004 53.20875H302.2789Q301.67795 54.658100000000005 300.953275 56.60235Q300.22860000000003 58.5466 299.69835 60.06665Q299.0267 62.04625 298.90297499999997 62.93Q298.77925 63.81375 298.77925 64.16725Q298.77925 65.29845 300.49372500000004 66.09382500000001Q302.20820000000003 66.8892 306.20275000000004 67.2427V70.0H285.62905V67.2427Q286.79560000000004 67.172 288.262625 66.87152499999999Q289.72965 66.57105 290.57805 66.0408Q292.0274 65.1924 293.034875 63.95515Q294.04235 62.7179 294.714 61.021100000000004Q298.8146 51.08775 302.93287499999997 41.11905Q307.05115 31.150350000000003 312.0355 19.131349999999998H319.1055Q326.0341 36.17005 329.95795 46.06805Q333.8818 55.96605 336.6391 62.47045Q337.09865 63.53095 337.80565 64.397025Q338.51265 65.2631 339.8206 66.0408Q340.8104 66.6064 342.11835 66.88919999999999Q343.4263 67.172 344.4868 67.2427ZM318.15105 49.7091 310.86895000000004 31.5392 303.6929 49.7091Z" fill="url(#gold)" paint-order="stroke fill" stroke="#170a00" stroke-linejoin="round" stroke-width="2.8"/>
  <path d="M18 72c17 2 31 0 44-6m236 0c13 6 27 8 44 6" fill="none" stroke="#dba527" stroke-linecap="round" stroke-width="1.4"/>
  <path d="m180 77 10.5 7.5-10.5 12.5-10.5-12.5Z" fill="url(#ruby)" paint-order="stroke fill" stroke="#220204" stroke-width="2.2"/>
  <path d="m180 80 6.2 4.5-6.2 7.2-6.2-7.2Z" fill="none" stroke="#ffd3a0" stroke-width="0.9"/>
</svg>
