<svg width="512" height="512" xmlns="http://www.w3.org/2000/svg" viewBox="0 0 128 128" role="img" aria-label="Luminox mark" shape-rendering="geometricPrecision" text-rendering="geometricPrecision">
  <defs>
    <linearGradient id="g" x1="18" y1="16" x2="112" y2="116" gradientUnits="userSpaceOnUse">
      <stop stop-color="#F8D86B"/>
      <stop offset="0.48" stop-color="#D99F21"/>
      <stop offset="1" stop-color="#7C4DFF"/>
    </linearGradient>
    <radialGradient id="r" cx="36" cy="26" r="86" gradientUnits="userSpaceOnUse">
      <stop stop-color="#FFF7C7" stop-opacity="0.95"/>
      <stop offset="0.42" stop-color="#F2C94C" stop-opacity="0.22"/>
      <stop offset="1" stop-color="#050814" stop-opacity="0"/>
    </radialGradient>
    <filter id="s" x="-20%" y="-20%" width="140%" height="140%">
      <feDropShadow dx="0" dy="10" stdDeviation="10" flood-color="#000" flood-opacity="0.35"/>
    </filter>
  </defs>
  <rect x="10" y="10" width="108" height="108" rx="32" fill="#0B1022"/>
  <rect x="10" y="10" width="108" height="108" rx="32" fill="url(#r)"/>
  <path d="M64 14l11 27 29-4-18 23 18 23-29-4-11 27-11-27-29 4 18-23-18-23 29 4L64 14z" fill="url(#g)" filter="url(#s)"/>
  <path d="M50 38h17v42h29v16H50V38z" fill="#120D04" opacity="0.82"/>
  <path d="M46 34h17v42h29v16H46V34z" fill="#FFF5C2"/>
</svg>
