<svg width="1920" height="1920" xmlns="http://www.w3.org/2000/svg" viewBox="0 0 640 640" role="img" aria-labelledby="title desc" shape-rendering="geometricPrecision" text-rendering="geometricPrecision">
  <title id="title">Lumina navigation seal</title>
  <desc id="desc">A vector gold Lumina seal with celestial rings, ornamental leaves, a central L and a ruby.</desc>
  <defs>
    <radialGradient id="night" cx="43%" cy="35%" r="76%">
      <stop offset="0" stop-color="#10182a"/>
      <stop offset="0.5" stop-color="#060a13"/>
      <stop offset="1" stop-color="#010205"/>
    </radialGradient>
    <linearGradient id="gold" x1="0" y1="0" x2="0.72" y2="1">
      <stop offset="0" stop-color="#fff8ca"/>
      <stop offset="0.17" stop-color="#ffe47a"/>
      <stop offset="0.42" stop-color="#e4a529"/>
      <stop offset="0.69" stop-color="#a95d08"/>
      <stop offset="0.86" stop-color="#f6c84e"/>
      <stop offset="1" stop-color="#6f3504"/>
    </linearGradient>
    <linearGradient id="goldReverse" x1="1" y1="0" x2="0" y2="1">
      <stop offset="0" stop-color="#fff4b0"/>
      <stop offset="0.3" stop-color="#d99317"/>
      <stop offset="0.62" stop-color="#7f4005"/>
      <stop offset="1" stop-color="#f3c853"/>
    </linearGradient>
    <linearGradient id="letterGold" x1="0" y1="0" x2="0.2" y2="1">
      <stop offset="0" stop-color="#fffde8"/>
      <stop offset="0.17" stop-color="#fff4b1"/>
      <stop offset="0.46" stop-color="#f2c54c"/>
      <stop offset="0.74" stop-color="#d28a16"/>
      <stop offset="1" stop-color="#9a5308"/>
    </linearGradient>
    <linearGradient id="ruby" x1="0.2" y1="0" x2="0.82" y2="1">
      <stop offset="0" stop-color="#ffd2b8"/>
      <stop offset="0.19" stop-color="#ff7158"/>
      <stop offset="0.5" stop-color="#e51e2e"/>
      <stop offset="0.78" stop-color="#9e0717"/>
      <stop offset="1" stop-color="#470006"/>
    </linearGradient>
    <clipPath id="innerDisc"><circle cx="320" cy="310" r="266"/></clipPath>
    <symbol id="star" viewBox="-18 -18 36 36">
      <path d="M0-18 4-4 18 0 4 4 0 18-4 4-18 0-4-4Z" fill="url(#gold)" stroke="#6b3304" stroke-width="1.2"/>
      <circle r="2.7" fill="#fffce4"/>
    </symbol>
    <symbol id="leaf" viewBox="0 0 36 18">
      <path d="M1 16C9 3 21 0 35 2 28 13 16 18 1 16Z" fill="url(#gold)" stroke="#7b3d05" stroke-width="1.2"/>
      <path d="M4 14C14 10 22 7 31 3" fill="none" stroke="#fff1a1" stroke-width="1" opacity="0.72"/>
    </symbol>
    <g id="ornamentBranch" fill="none" stroke-linecap="round" stroke-linejoin="round">
      <path d="M282 535C240 530 203 511 171 482C139 453 117 418 111 389" stroke="#5f2b02" stroke-width="13"/>
      <path d="M282 529C240 524 203 505 171 476C139 447 117 412 111 383" stroke="url(#gold)" stroke-width="9"/>
      <path d="M275 526C237 520 202 501 173 474C145 448 125 416 119 388" stroke="#fff0a0" stroke-width="2" opacity="0.72"/>
      <path d="M111 383C107 360 121 342 141 343C160 344 172 361 166 379C160 395 140 401 130 389C122 380 128 368 139 369" stroke="#6b3003" stroke-width="11"/>
      <path d="M111 378C107 355 121 337 141 338C160 339 172 356 166 374C160 390 140 396 130 384C122 375 128 363 139 364" stroke="url(#gold)" stroke-width="7"/>
      <path d="M260 542C214 549 171 536 137 511C108 489 92 461 96 438C99 419 116 410 132 419C148 428 149 449 135 461C123 471 109 463 112 449" stroke="#6b3003" stroke-width="10"/>
      <path d="M260 537C214 544 171 531 137 506C108 484 92 456 96 433C99 414 116 405 132 414C148 423 149 444 135 456C123 466 109 458 112 444" stroke="url(#goldReverse)" stroke-width="6"/>
      <path d="M226 518C198 501 181 478 180 455C179 436 192 424 208 430C223 436 227 453 216 464C207 473 194 467 196 456" stroke="#6b3003" stroke-width="9"/>
      <path d="M226 513C198 496 181 473 180 450C179 431 192 419 208 425C223 431 227 448 216 459C207 468 194 462 196 451" stroke="url(#gold)" stroke-width="5.5"/>
      <use href="#leaf" x="91" y="365" width="60" height="30" transform="rotate(-62 121 380)"/>
      <use href="#leaf" x="108" y="398" width="66" height="33" transform="rotate(-50 141 414)"/>
      <use href="#leaf" x="133" y="431" width="70" height="35" transform="rotate(-38 168 448)"/>
      <use href="#leaf" x="165" y="462" width="70" height="35" transform="rotate(-27 200 479)"/>
      <use href="#leaf" x="200" y="488" width="64" height="32" transform="rotate(-15 232 504)"/>
    </g>
  </defs>

  <circle cx="320" cy="320" r="316" fill="#000"/>
  <circle cx="320" cy="320" r="309" fill="url(#night)" stroke="#6b3405" stroke-width="7"/>
  <circle cx="320" cy="320" r="302" fill="none" stroke="url(#gold)" stroke-width="12"/>
  <circle cx="320" cy="320" r="291" fill="none" stroke="#ffe47d" stroke-width="2.5" opacity="0.86"/>
  <circle cx="320" cy="320" r="282" fill="none" stroke="#8b4b08" stroke-width="4"/>

  <g clip-path="url(#innerDisc)" fill="none" stroke-linecap="round">
    <circle cx="320" cy="310" r="239" stroke="#c8790b" stroke-width="2.2" opacity="0.82"/>
    <circle cx="320" cy="310" r="196" stroke="#c8790b" stroke-width="2" opacity="0.74"/>
    <circle cx="320" cy="310" r="151" stroke="#c8790b" stroke-width="1.8" opacity="0.66"/>
    <circle cx="320" cy="310" r="105" stroke="#c8790b" stroke-width="1.5" opacity="0.58"/>
    <ellipse cx="320" cy="310" rx="230" ry="119" stroke="#ba6f09" stroke-width="1.7" opacity="0.7" transform="rotate(-35 320 310)"/>
    <ellipse cx="320" cy="310" rx="229" ry="91" stroke="#ba6f09" stroke-width="1.5" opacity="0.62" transform="rotate(35 320 310)"/>
    <path d="M51 310H589M320 48V572" stroke="#c77b0c" stroke-width="1.4" opacity="0.58"/>
    <path d="M88 222C183 165 254 122 320 83M552 222C457 165 386 122 320 83" stroke="#a65d08" stroke-width="1.2" opacity="0.45"/>
  </g>

  <use href="#star" x="296" y="21" width="48" height="48"/>
  <use href="#star" x="27" y="286" width="48" height="48"/>
  <use href="#star" x="565" y="286" width="48" height="48"/>
  <use href="#star" x="142" y="284" width="28" height="28"/>
  <use href="#star" x="470" y="284" width="28" height="28"/>
  <use href="#star" x="301" y="283" width="38" height="38"/>
  <use href="#star" x="263" y="67" width="23" height="23"/>
  <use href="#star" x="354" y="69" width="19" height="19"/>
  <use href="#star" x="111" y="215" width="16" height="16"/>
  <use href="#star" x="512" y="216" width="16" height="16"/>

  <use href="#ornamentBranch"/>
  <use href="#ornamentBranch" transform="translate(640 0) scale(-1 1)"/>

  <g transform="translate(70 -4) scale(6.5)" stroke-linejoin="round">
    <path d="M65.1314 53.91575 64.1416 70H17.93915V67.2427Q19.1764 67.13665 20.83785 66.906875Q22.4993 66.6771 23.02955 66.465Q24.30215 65.9701 24.79705 65.08635Q25.29195 64.2026 25.29195 62.82395V27.4386Q25.29195 26.166 24.9031 25.335275Q24.51425 24.50455 23.02955 23.8329Q21.9337 23.338 20.395975 23.037525Q18.85825 22.73705 17.93915 22.59565V19.83835H45.4768V22.59565Q44.3456 22.7017 42.807875 22.896125Q41.27015 23.09055 40.13895 23.44405Q38.7603 23.9036 38.30075 24.875725Q37.8412 25.84785 37.8412 27.0851V60.06665Q37.8412 62.39975 38.15935 63.74305Q38.4775 65.08635 39.3966 65.72265Q40.3157 66.3943 41.959475 66.588725Q43.60325 66.78315 46.50195 66.78315Q49.32995 66.78315 51.998875 66.447325Q54.6678 66.1115 55.83435 64.9803Q57.6372 63.17745 59.528425 59.907575Q61.41965 56.6377 62.55085 53.91575Z" fill="#030205" stroke="#010102" stroke-width="2.8" opacity="0.96"/>
    <path d="M65.1314 53.91575 64.1416 70H17.93915V67.2427Q19.1764 67.13665 20.83785 66.906875Q22.4993 66.6771 23.02955 66.465Q24.30215 65.9701 24.79705 65.08635Q25.29195 64.2026 25.29195 62.82395V27.4386Q25.29195 26.166 24.9031 25.335275Q24.51425 24.50455 23.02955 23.8329Q21.9337 23.338 20.395975 23.037525Q18.85825 22.73705 17.93915 22.59565V19.83835H45.4768V22.59565Q44.3456 22.7017 42.807875 22.896125Q41.27015 23.09055 40.13895 23.44405Q38.7603 23.9036 38.30075 24.875725Q37.8412 25.84785 37.8412 27.0851V60.06665Q37.8412 62.39975 38.15935 63.74305Q38.4775 65.08635 39.3966 65.72265Q40.3157 66.3943 41.959475 66.588725Q43.60325 66.78315 46.50195 66.78315Q49.32995 66.78315 51.998875 66.447325Q54.6678 66.1115 55.83435 64.9803Q57.6372 63.17745 59.528425 59.907575Q61.41965 56.6377 62.55085 53.91575Z" transform="translate(0 1.4)" fill="#552503" stroke="#140800" stroke-width="1.8"/>
    <path d="M65.1314 53.91575 64.1416 70H17.93915V67.2427Q19.1764 67.13665 20.83785 66.906875Q22.4993 66.6771 23.02955 66.465Q24.30215 65.9701 24.79705 65.08635Q25.29195 64.2026 25.29195 62.82395V27.4386Q25.29195 26.166 24.9031 25.335275Q24.51425 24.50455 23.02955 23.8329Q21.9337 23.338 20.395975 23.037525Q18.85825 22.73705 17.93915 22.59565V19.83835H45.4768V22.59565Q44.3456 22.7017 42.807875 22.896125Q41.27015 23.09055 40.13895 23.44405Q38.7603 23.9036 38.30075 24.875725Q37.8412 25.84785 37.8412 27.0851V60.06665Q37.8412 62.39975 38.15935 63.74305Q38.4775 65.08635 39.3966 65.72265Q40.3157 66.3943 41.959475 66.588725Q43.60325 66.78315 46.50195 66.78315Q49.32995 66.78315 51.998875 66.447325Q54.6678 66.1115 55.83435 64.9803Q57.6372 63.17745 59.528425 59.907575Q61.41965 56.6377 62.55085 53.91575Z" fill="url(#letterGold)" stroke="#281000" stroke-width="1.35"/>
    <path d="M23.8 24.5H42.5M29.5 28V61.5M39.2 65.1C46.7 66 53.2 64.7 58.9 57.8" fill="none" stroke="#fff7bd" stroke-width="0.55" stroke-linecap="round" opacity="0.68"/>
    <path d="M25.9 28.8V61.8Q25.9 65.2 22.3 66.2" fill="none" stroke="#fff6b0" stroke-width="0.46" stroke-linecap="round" opacity="0.92"/>
    <path d="M23.2 67.4H47.2Q53.8 67.4 58.7 62.4" fill="none" stroke="#f6c95d" stroke-width="0.42" stroke-linecap="round" opacity="0.76"/>
    <path d="M32.4 33.2V56.7" fill="none" stroke="#8b4b08" stroke-width="0.7" stroke-linecap="round" opacity="0.45"/>
    <path d="M32.4 34.3V55.6" fill="none" stroke="#fff1a1" stroke-width="0.24" stroke-linecap="round" opacity="0.62"/>
    <g fill="#fff3a4" stroke="#a65d08" stroke-width="0.18" opacity="0.82">
      <path d="M32.4 36.2 33.25 37.15 32.4 38.1 31.55 37.15Z"/>
      <path d="M32.4 44.1 33.55 45.35 32.4 46.6 31.25 45.35Z"/>
      <path d="M32.4 52.5 33.25 53.45 32.4 54.4 31.55 53.45Z"/>
    </g>
    <path d="M40.35 62.35 41.8 63.8 40.35 65.25 38.9 63.8Z" fill="url(#ruby)" stroke="#ffe9a8" stroke-width="0.28"/>
    <path d="M40.35 62.35 40.35 65.25 38.9 63.8Z" fill="#ff8065" opacity="0.34"/>
    <path d="M40.35 62.35 41.8 63.8 40.35 63.45Z" fill="#fff0c0" opacity="0.46"/>
  </g>

  <use href="#star" x="207" y="489" width="36" height="36"/>
  <use href="#star" x="397" y="489" width="36" height="36"/>

  <path d="M320 472 388 535 320 620 252 535Z" fill="#120305" stroke="#1d0805" stroke-width="14" stroke-linejoin="round"/>
  <path d="M320 479 379 535 320 608 261 535Z" fill="url(#gold)" stroke="#6d3305" stroke-width="5" stroke-linejoin="round"/>
  <path d="M320 492 365 535 320 591 275 535Z" fill="url(#ruby)" stroke="#ffd071" stroke-width="4" stroke-linejoin="round"/>
  <path d="M320 492 320 591 275 535ZM320 492 365 535 320 526Z" fill="#ffd8a8" opacity="0.27"/>
  <path d="M320 526 365 535 320 591 275 535Z" fill="#650614" opacity="0.48"/>
  <path d="M320 505 351 535 320 574 289 535Z" fill="none" stroke="#ffe2b0" stroke-width="2.5" opacity="0.78"/>
  <circle cx="320" cy="535" r="7" fill="#fffbe0"/>
</svg>
