<svg width="2280" height="1680" shape-rendering="geometricPrecision" text-rendering="geometricPrecision" xmlns="http://www.w3.org/2000/svg" viewBox="0 0 760 560" fill="none">
  <defs>
    <linearGradient id="eg-core" x1="250" y1="118" x2="510" y2="438" gradientUnits="userSpaceOnUse"><stop stop-color="#F6D46F"/><stop offset=".35" stop-color="#B58AFF"/><stop offset=".68" stop-color="#56C7F5"/><stop offset="1" stop-color="#5EE19D"/></linearGradient>
    <linearGradient id="eg-universal" x1="76" y1="126" x2="316" y2="430" gradientUnits="userSpaceOnUse"><stop stop-color="#F6D46F"/><stop offset=".5" stop-color="#A675FF"/><stop offset="1" stop-color="#56C7F5"/></linearGradient>
    <linearGradient id="eg-community" x1="444" y1="122" x2="684" y2="434" gradientUnits="userSpaceOnUse"><stop stop-color="#F6D46F"/><stop offset=".52" stop-color="#63E3AB"/><stop offset="1" stop-color="#56C7F5"/></linearGradient>
    <radialGradient id="eg-aura" cx="0" cy="0" r="1" gradientTransform="translate(380 283) rotate(90) scale(252 356)" gradientUnits="userSpaceOnUse"><stop stop-color="#8B5CF6" stop-opacity=".22"/><stop offset=".5" stop-color="#56C7F5" stop-opacity=".07"/><stop offset="1" stop-color="#8B5CF6" stop-opacity="0"/></radialGradient>
    <filter id="eg-shadow" x="-30%" y="-30%" width="160%" height="175%"><feDropShadow dx="0" dy="24" stdDeviation="22" flood-color="#000" flood-opacity=".48"/></filter>
    <filter id="eg-glow" x="-100%" y="-100%" width="300%" height="300%"><feGaussianBlur stdDeviation="8"/></filter>
  </defs>
  <ellipse cx="380" cy="283" rx="348" ry="248" fill="url(#eg-aura)"/>
  <g opacity=".32" stroke="#8C9BC1">
    <ellipse cx="380" cy="281" rx="320" ry="211"/>
    <ellipse cx="380" cy="281" rx="269" ry="172" stroke-dasharray="7 10"/>
    <path d="M55 281h650M380 54v454" stroke-opacity=".24"/>
  </g>
  <path d="M306 278c-63-14-101-20-158-8M454 278c63-14 101-20 158-8" stroke="url(#eg-core)" stroke-width="3" stroke-linecap="round"/>
  <path d="M300 308c-63 31-103 57-145 93M460 308c63 31 103 57 145 93" stroke="url(#eg-core)" stroke-width="2" stroke-opacity=".48" stroke-dasharray="7 9"/>
  <g filter="url(#eg-shadow)">
    <g transform="translate(-22)">
      <circle cx="165" cy="270" r="111" fill="#0A1125" stroke="url(#eg-universal)" stroke-width="3"/>
      <circle cx="165" cy="270" r="78" stroke="#A675FF" stroke-opacity=".55" stroke-width="2"/>
      <path d="M87 270h156M165 192c24 22 38 48 38 78s-14 56-38 78c-24-22-38-48-38-78s14-56 38-78Z" stroke="url(#eg-universal)" stroke-width="2.5"/>
      <path d="M105 218c18 13 38 19 60 19s42-6 60-19M105 322c18-13 38-19 60-19s42 6 60 19" stroke="#56C7F5" stroke-opacity=".62" stroke-width="2"/>
      <circle cx="90" cy="219" r="8" fill="#F6D46F"/><circle cx="232" cy="323" r="8" fill="#56C7F5"/><circle cx="111" cy="337" r="5" fill="#A675FF"/>
    </g>
    <g transform="translate(22)">
      <path d="m595 153 104 38v82c0 69-42 123-104 155-62-32-104-86-104-155v-82l104-38Z" fill="#091422" stroke="url(#eg-community)" stroke-width="3"/>
      <circle cx="595" cy="249" r="31" stroke="url(#eg-community)" stroke-width="3"/>
      <circle cx="539" cy="283" r="23" stroke="#F6D46F" stroke-width="2.5"/>
      <circle cx="651" cy="283" r="23" stroke="#56C7F5" stroke-width="2.5"/>
      <path d="M528 356c6-37 29-56 67-56s61 19 67 56M495 344c4-24 18-38 43-41M695 344c-4-24-18-38-43-41" stroke="url(#eg-community)" stroke-width="4" stroke-linecap="round"/>
      <path d="M595 182v31M580 197h30" stroke="#F6D46F" stroke-width="3" stroke-linecap="round"/>
    </g>
    <g>
      <path d="m380 174 101 58v116l-101 58-101-58V232l101-58Z" fill="#080D1B" stroke="url(#eg-core)" stroke-width="4"/>
      <path d="M347 234v108h79" stroke="#F6D46F" stroke-width="14" stroke-linecap="round" stroke-linejoin="round"/>
      <circle cx="427" cy="342" r="11" fill="#FB7185"/>
      <circle cx="380" cy="290" r="79" stroke="#A675FF" stroke-opacity=".15"/>
    </g>
  </g>
  <g fill="#F6D46F"><circle cx="309" cy="277" r="5"/><circle cx="451" cy="277" r="5"/></g>
  <g fill="#56C7F5"><circle cx="201" cy="444" r="5"/><circle cx="559" cy="444" r="5"/></g>
  <g opacity=".55" fill="url(#eg-core)"><circle cx="380" cy="92" r="5"/><circle cx="65" cy="330" r="4"/><circle cx="696" cy="337" r="4"/></g>
  <circle cx="380" cy="290" r="120" stroke="#A675FF" stroke-opacity=".14" stroke-width="18" filter="url(#eg-glow)"/>
</svg>
