<svg xmlns="http://www.w3.org/2000/svg" viewBox="0 0 760 360" fill="none">
  <defs>
    <linearGradient id="esc-line" x1="79" y1="59" x2="680" y2="305" gradientUnits="userSpaceOnUse"><stop stop-color="#A675FF"/><stop offset=".33" stop-color="#56C7F5"/><stop offset=".68" stop-color="#F6D46F"/><stop offset="1" stop-color="#5EE19D"/></linearGradient>
    <radialGradient id="esc-aura" cx="0" cy="0" r="1" gradientTransform="translate(380 181) rotate(90) scale(164 310)" gradientUnits="userSpaceOnUse"><stop stop-color="#8B5CF6" stop-opacity=".27"/><stop offset="1" stop-color="#8B5CF6" stop-opacity="0"/></radialGradient>
    <filter id="esc-shadow" x="-30%" y="-50%" width="160%" height="210%"><feDropShadow dx="0" dy="22" stdDeviation="19" flood-color="#000" flood-opacity=".45"/></filter>
  </defs>
  <ellipse cx="380" cy="181" rx="320" ry="164" fill="url(#esc-aura)"/>
  <path d="M111 181h538" stroke="url(#esc-line)" stroke-opacity=".32" stroke-width="2" stroke-dasharray="7 9"/>
  <path d="M210 94c43 0 60 25 86 51M550 94c-43 0-60 25-86 51M210 268c43 0 60-25 86-51M550 268c-43 0-60-25-86-51" stroke="url(#esc-line)" stroke-opacity=".42" stroke-width="2.5"/>
  <g filter="url(#esc-shadow)">
    <rect x="273" y="77" width="214" height="208" rx="34" fill="#091020" stroke="url(#esc-line)" stroke-width="3"/>
    <rect x="298" y="104" width="164" height="39" rx="12" fill="#111A32" stroke="#A675FF" stroke-opacity=".46"/>
    <circle cx="319" cy="123.5" r="7" fill="#F6D46F"/><path d="M337 117h99M337 128h64" stroke="#C6CDDE" stroke-width="4" stroke-linecap="round" opacity=".7"/>
    <rect x="298" y="158" width="77" height="53" rx="14" fill="#111A32" stroke="#56C7F5" stroke-opacity=".52"/>
    <rect x="385" y="158" width="77" height="53" rx="14" fill="#111A32" stroke="#5EE19D" stroke-opacity=".52"/>
    <path d="M318 184h38M337 174v20" stroke="#56C7F5" stroke-width="3" stroke-linecap="round"/>
    <path d="m406 184 11 11 25-27" stroke="#5EE19D" stroke-width="4" stroke-linecap="round" stroke-linejoin="round"/>
    <rect x="298" y="225" width="164" height="34" rx="11" fill="#111A32" stroke="#F6D46F" stroke-opacity=".42"/>
    <path d="M319 242h121" stroke="#D5DAE8" stroke-width="4" stroke-linecap="round" opacity=".64"/>
    <g>
      <circle cx="151" cy="94" r="54" fill="#091020" stroke="#A675FF" stroke-width="2.5"/>
      <circle cx="151" cy="94" r="31" stroke="#56C7F5" stroke-width="2"/>
      <path d="M120 94h62M151 63c10 9 16 20 16 31s-6 22-16 31c-10-9-16-20-16-31s6-22 16-31Z" stroke="#A675FF" stroke-width="2"/>
    </g>
    <g>
      <path d="m609 41 48 17v38c0 32-20 58-48 73-28-15-48-41-48-73V58l48-17Z" fill="#091020" stroke="#5EE19D" stroke-width="2.5"/>
      <circle cx="609" cy="81" r="13" stroke="#F6D46F" stroke-width="2"/><path d="M580 127c3-19 13-30 29-30s26 11 29 30" stroke="#5EE19D" stroke-width="3" stroke-linecap="round"/>
    </g>
    <g transform="translate(97 216)"><rect width="108" height="80" rx="24" fill="#091020" stroke="#56C7F5" stroke-width="2.5"/><path d="M28 28h52M28 42h34" stroke="#56C7F5" stroke-width="3" stroke-linecap="round"/><path d="m38 80 14-15h22" stroke="#56C7F5" stroke-width="2.5"/></g>
    <g transform="translate(555 216)"><rect width="108" height="80" rx="24" fill="#091020" stroke="#F6D46F" stroke-width="2.5"/><path d="m54 19 8 17 19 2-14 13 4 19-17-9-17 9 4-19-14-13 19-2 8-17Z" stroke="#F6D46F" stroke-width="2.4" stroke-linejoin="round"/></g>
  </g>
  <g fill="url(#esc-line)"><circle cx="246" cy="133" r="5"/><circle cx="514" cy="133" r="5"/><circle cx="246" cy="229" r="5"/><circle cx="514" cy="229" r="5"/></g>
</svg>
