<svg xmlns="http://www.w3.org/2000/svg" viewBox="0 0 720 520" fill="none">
  <defs>
    <linearGradient id="frame-a" x1="80" y1="80" x2="640" y2="450" gradientUnits="userSpaceOnUse">
      <stop stop-color="#F6D46F"/>
      <stop offset="0.5" stop-color="#9B6BFF"/>
      <stop offset="1" stop-color="#56C7F5"/>
    </linearGradient>
    <linearGradient id="photo-a" x1="170" y1="110" x2="510" y2="380" gradientUnits="userSpaceOnUse">
      <stop stop-color="#283662"/>
      <stop offset="0.55" stop-color="#161D3C"/>
      <stop offset="1" stop-color="#0A1022"/>
    </linearGradient>
    <radialGradient id="photo-glow" cx="0" cy="0" r="1" gradientTransform="translate(358 245) rotate(90) scale(180 250)" gradientUnits="userSpaceOnUse">
      <stop stop-color="#8B5CF6" stop-opacity="0.34"/>
      <stop offset="1" stop-color="#8B5CF6" stop-opacity="0"/>
    </radialGradient>
    <filter id="shadow" x="-20%" y="-20%" width="140%" height="150%">
      <feDropShadow dx="0" dy="22" stdDeviation="24" flood-color="#000" flood-opacity="0.42"/>
    </filter>
  </defs>
  <g opacity="0.5" transform="rotate(-9 210 270)">
    <rect x="70" y="122" width="290" height="300" rx="22" fill="#0B1126" stroke="#56C7F5" stroke-opacity="0.36" stroke-width="2"/>
    <rect x="91" y="143" width="248" height="205" rx="13" fill="url(#photo-a)"/>
    <path d="m91 310 63-59 45 38 51-74 89 95v38H91v-38Z" fill="#56C7F5" fill-opacity="0.12"/>
  </g>
  <g opacity="0.58" transform="rotate(8 515 270)">
    <rect x="363" y="98" width="286" height="306" rx="22" fill="#0B1126" stroke="#F6D46F" stroke-opacity="0.34" stroke-width="2"/>
    <rect x="384" y="119" width="244" height="210" rx="13" fill="url(#photo-a)"/>
    <circle cx="548" cy="177" r="31" fill="#F6D46F" fill-opacity="0.15"/>
    <path d="m384 300 61-71 57 52 44-42 82 61v29H384v-29Z" fill="#F6D46F" fill-opacity="0.11"/>
  </g>
  <g filter="url(#shadow)">
    <rect x="171" y="72" width="378" height="376" rx="28" fill="#0A1022" stroke="url(#frame-a)" stroke-opacity="0.72" stroke-width="2"/>
    <rect x="197" y="98" width="326" height="262" rx="17" fill="url(#photo-a)"/>
    <rect x="197" y="98" width="326" height="262" rx="17" fill="url(#photo-glow)"/>
    <circle cx="438" cy="166" r="38" fill="#F6D46F" fill-opacity="0.17"/>
    <path d="m197 325 78-85 58 59 69-91 121 117v35H197v-35Z" fill="#9B6BFF" fill-opacity="0.16"/>
    <path d="m197 333 85-68 55 42 67-58 119 84" stroke="url(#frame-a)" stroke-opacity="0.72" stroke-width="3" stroke-linecap="round"/>
    <circle cx="282" cy="265" r="7" fill="#F6D46F"/><circle cx="337" cy="307" r="7" fill="#B58CFF"/><circle cx="404" cy="249" r="7" fill="#56C7F5"/>
    <rect x="220" y="388" width="118" height="11" rx="5.5" fill="#EEF2FF" fill-opacity="0.78"/>
    <rect x="220" y="412" width="204" height="8" rx="4" fill="#EEF2FF" fill-opacity="0.22"/>
    <rect x="438" y="386" width="62" height="24" rx="12" fill="#8B5CF6" fill-opacity="0.18" stroke="#B58CFF" stroke-opacity="0.38"/>
  </g>
</svg>
