<svg width="2400" height="1840" viewBox="0 0 1200 920" fill="none" shape-rendering="geometricPrecision" xmlns="http://www.w3.org/2000/svg">
  <defs>
    <linearGradient id="gwb-gold" x1="174" y1="145" x2="728" y2="746" gradientUnits="userSpaceOnUse">
      <stop stop-color="#FFF4C7"/>
      <stop offset=".35" stop-color="#F3CC63"/>
      <stop offset=".7" stop-color="#D38A2A"/>
      <stop offset="1" stop-color="#9A531D"/>
    </linearGradient>
    <linearGradient id="gwb-spectrum" x1="206" y1="198" x2="1008" y2="722" gradientUnits="userSpaceOnUse">
      <stop stop-color="#F3CC63"/>
      <stop offset=".26" stop-color="#FB7185"/>
      <stop offset=".51" stop-color="#A675FF"/>
      <stop offset=".76" stop-color="#56C7F5"/>
      <stop offset="1" stop-color="#5EE19D"/>
    </linearGradient>
    <linearGradient id="gwb-night" x1="368" y1="214" x2="784" y2="762" gradientUnits="userSpaceOnUse">
      <stop stop-color="#17264B"/>
      <stop offset=".58" stop-color="#0C142B"/>
      <stop offset="1" stop-color="#070C19"/>
    </linearGradient>
    <radialGradient id="gwb-aura" cx="0" cy="0" r="1" gradientTransform="translate(600 446) rotate(90) scale(392 508)" gradientUnits="userSpaceOnUse">
      <stop stop-color="#A675FF" stop-opacity=".2"/>
      <stop offset=".35" stop-color="#56C7F5" stop-opacity=".1"/>
      <stop offset=".7" stop-color="#F3CC63" stop-opacity=".055"/>
      <stop offset="1" stop-color="#080D1A" stop-opacity="0"/>
    </radialGradient>
    <radialGradient id="gwb-world-aura" cx="0" cy="0" r="1" gradientTransform="translate(263 486) rotate(90) scale(248)" gradientUnits="userSpaceOnUse">
      <stop stop-color="#F3CC63" stop-opacity=".2"/>
      <stop offset="1" stop-color="#F3CC63" stop-opacity="0"/>
    </radialGradient>
    <radialGradient id="gwb-community-aura" cx="0" cy="0" r="1" gradientTransform="translate(935 482) rotate(90) scale(250)" gradientUnits="userSpaceOnUse">
      <stop stop-color="#5EE19D" stop-opacity=".16"/>
      <stop offset="1" stop-color="#5EE19D" stop-opacity="0"/>
    </radialGradient>
    <filter id="gwb-shadow" x="-30%" y="-30%" width="160%" height="175%">
      <feDropShadow dx="0" dy="28" stdDeviation="26" flood-color="#00030A" flood-opacity=".56"/>
    </filter>
    <filter id="gwb-glow-gold" x="-100%" y="-100%" width="300%" height="300%">
      <feGaussianBlur stdDeviation="10" result="blur"/>
      <feFlood flood-color="#F3CC63" flood-opacity=".5" result="color"/>
      <feComposite in="color" in2="blur" operator="in" result="glow"/>
      <feMerge><feMergeNode in="glow"/><feMergeNode in="SourceGraphic"/></feMerge>
    </filter>
    <filter id="gwb-glow-red" x="-120%" y="-120%" width="340%" height="340%">
      <feDropShadow dx="0" dy="0" stdDeviation="10" flood-color="#FB475E" flood-opacity=".78"/>
    </filter>
  </defs>

  <ellipse cx="600" cy="456" rx="552" ry="408" fill="url(#gwb-aura)"/>
  <ellipse cx="262" cy="487" rx="274" ry="254" fill="url(#gwb-world-aura)"/>
  <ellipse cx="937" cy="483" rx="276" ry="254" fill="url(#gwb-community-aura)"/>

  <g opacity=".62">
    <ellipse cx="600" cy="452" rx="470" ry="327" stroke="#A675FF" stroke-opacity=".2" stroke-width="2"/>
    <ellipse cx="600" cy="452" rx="386" ry="268" stroke="#56C7F5" stroke-opacity=".17" stroke-width="2" stroke-dasharray="8 16"/>
    <path d="M77 618C232 524 340 520 470 584C569 633 662 637 755 594C888 533 1001 532 1130 612" stroke="url(#gwb-spectrum)" stroke-opacity=".24" stroke-width="3"/>
    <path d="M102 683C260 615 386 625 495 680C583 725 663 723 746 679C866 616 1000 612 1102 663" stroke="#56C7F5" stroke-opacity=".12" stroke-width="2" stroke-dasharray="7 13"/>
  </g>

  <g fill="#F3CC63">
    <circle cx="92" cy="265" r="5"/>
    <circle cx="178" cy="132" r="3"/>
    <circle cx="346" cy="108" r="4"/>
    <circle cx="1093" cy="261" r="4"/>
    <circle cx="1018" cy="131" r="3"/>
  </g>
  <g fill="#56C7F5">
    <circle cx="91" cy="463" r="3"/>
    <circle cx="1105" cy="463" r="4"/>
    <circle cx="945" cy="95" r="4"/>
    <circle cx="429" cy="86" r="3"/>
  </g>
  <g fill="#A675FF">
    <circle cx="252" cy="90" r="3"/>
    <circle cx="795" cy="105" r="3"/>
    <circle cx="1129" cy="376" r="3"/>
  </g>

  <g opacity=".76">
    <path d="M136 660V429L188 402V347L236 322L284 242L332 322L380 347V402L432 429V660" fill="url(#gwb-night)" fill-opacity=".68" stroke="url(#gwb-gold)" stroke-width="3"/>
    <path d="M165 660V458H222V660M346 660V458H403V660M252 660V384H316V660" stroke="#F3CC63" stroke-opacity=".43" stroke-width="3"/>
    <path d="M262 660V560C262 541 272 526 284 526C296 526 306 541 306 560V660" fill="#070C19" stroke="#F3CC63" stroke-opacity=".5" stroke-width="3"/>
    <path d="M284 260L310 307H258L284 260Z" fill="#F3CC63" fill-opacity=".12" stroke="url(#gwb-gold)" stroke-width="3"/>
    <g fill="#F3CC63" fill-opacity=".62">
      <rect x="182" y="480" width="20" height="36" rx="10"/>
      <rect x="366" y="480" width="20" height="36" rx="10"/>
      <rect x="273" y="424" width="22" height="40" rx="11"/>
    </g>
  </g>

  <g opacity=".72">
    <circle cx="937" cy="468" r="203" stroke="#5EE19D" stroke-opacity=".22" stroke-width="2"/>
    <circle cx="937" cy="468" r="152" stroke="#56C7F5" stroke-opacity=".18" stroke-width="2" stroke-dasharray="7 13"/>
    <path d="M937 316L1036 388V525L937 609L838 525V388L937 316Z" fill="#0B1428" fill-opacity=".64" stroke="#5EE19D" stroke-opacity=".5" stroke-width="3"/>
    <circle cx="937" cy="421" r="39" fill="#5EE19D" fill-opacity=".1" stroke="#5EE19D" stroke-width="4"/>
    <path d="M866 548C879 493 911 470 937 470C963 470 995 493 1008 548" stroke="#5EE19D" stroke-width="6" stroke-linecap="round"/>
    <path d="M808 352L854 386M1066 352L1020 386M801 571L850 536M1073 571L1024 536" stroke="#56C7F5" stroke-opacity=".44" stroke-width="2"/>
    <g>
      <circle cx="788" cy="333" r="24" fill="#0B1428" stroke="#F3CC63" stroke-width="3"/>
      <circle cx="1086" cy="333" r="24" fill="#0B1428" stroke="#A675FF" stroke-width="3"/>
      <circle cx="779" cy="592" r="24" fill="#0B1428" stroke="#56C7F5" stroke-width="3"/>
      <circle cx="1095" cy="592" r="24" fill="#0B1428" stroke="#5EE19D" stroke-width="3"/>
      <circle cx="937" cy="685" r="24" fill="#0B1428" stroke="#FB7185" stroke-width="3"/>
    </g>
  </g>

  <path d="M399 522C451 475 494 449 534 433M800 522C750 476 705 450 666 433" stroke="url(#gwb-spectrum)" stroke-width="4" stroke-linecap="round"/>
  <path d="M403 544C465 512 507 496 543 489M797 544C738 514 696 497 659 489" stroke="#56C7F5" stroke-opacity=".25" stroke-width="2" stroke-dasharray="8 12"/>
  <g fill="#0B1428" stroke-width="3">
    <circle cx="429" cy="500" r="11" stroke="#F3CC63"/>
    <circle cx="474" cy="465" r="9" stroke="#FB7185"/>
    <circle cx="771" cy="501" r="11" stroke="#5EE19D"/>
    <circle cx="726" cy="465" r="9" stroke="#56C7F5"/>
  </g>

  <g filter="url(#gwb-shadow)">
    <path d="M600 176L758 266V438C758 562 683 646 600 696C517 646 442 562 442 438V266L600 176Z" fill="url(#gwb-night)" stroke="url(#gwb-spectrum)" stroke-width="5"/>
    <path d="M600 207L730 281V430C730 535 668 606 600 651C532 606 470 535 470 430V281L600 207Z" stroke="#F3CC63" stroke-opacity=".22" stroke-width="2"/>
    <path d="M538 299H596V480H679V532H538V299Z" fill="url(#gwb-gold)" stroke="#FFF3C1" stroke-opacity=".58" stroke-width="3" stroke-linejoin="round"/>
    <path d="M554 316H578V463H662V482H554V316Z" fill="#FFF2B8" fill-opacity=".28"/>
    <path d="M600 176V120M574 146H626" stroke="#F3CC63" stroke-width="3" stroke-linecap="round"/>
    <path d="M600 114L612 136L600 158L588 136L600 114Z" fill="#F3CC63" fill-opacity=".2" stroke="url(#gwb-gold)" stroke-width="3"/>
    <g filter="url(#gwb-glow-red)">
      <path d="M600 645L636 681L600 717L564 681L600 645Z" fill="#7B1629" stroke="#F3CC63" stroke-width="4"/>
      <path d="M600 653L628 681L600 709L572 681L600 653Z" fill="#FB475E"/>
      <path d="M600 653V709M572 681H628M580 661L620 701M620 661L580 701" stroke="#FFF2B8" stroke-opacity=".72" stroke-width="2"/>
    </g>
  </g>

  <g filter="url(#gwb-glow-gold)" fill="#FFF3C1">
    <circle cx="600" cy="96" r="5"/>
    <circle cx="524" cy="232" r="4"/>
    <circle cx="682" cy="242" r="4"/>
  </g>

  <g opacity=".68">
    <path d="M201 720C334 752 454 759 600 754C746 759 866 752 999 720" stroke="url(#gwb-spectrum)" stroke-width="3"/>
    <path d="M253 760C374 788 480 793 600 789C720 793 826 788 947 760" stroke="#A675FF" stroke-opacity=".22" stroke-width="2"/>
    <path d="M499 805H701" stroke="#F3CC63" stroke-opacity=".24" stroke-width="2"/>
    <circle cx="600" cy="805" r="6" fill="#FB475E"/>
  </g>
</svg>
