<svg xmlns="http://www.w3.org/2000/svg" viewBox="0 0 720 540" fill="none">
  <defs>
    <linearGradient id="ch-paper" x1="214" y1="92" x2="504" y2="456" gradientUnits="userSpaceOnUse">
      <stop stop-color="#FFF0BE"/>
      <stop offset=".56" stop-color="#DFC68E"/>
      <stop offset="1" stop-color="#9A7743"/>
    </linearGradient>
    <linearGradient id="ch-roll" x1="168" y1="90" x2="552" y2="494" gradientUnits="userSpaceOnUse">
      <stop stop-color="#F6D46F"/>
      <stop offset=".5" stop-color="#FB7185"/>
      <stop offset="1" stop-color="#8B5CF6"/>
    </linearGradient>
    <linearGradient id="ch-shield" x1="312" y1="122" x2="408" y2="232" gradientUnits="userSpaceOnUse">
      <stop stop-color="#17213D"/>
      <stop offset="1" stop-color="#091226"/>
    </linearGradient>
    <filter id="ch-shadow" x="-25%" y="-25%" width="150%" height="175%">
      <feDropShadow dx="0" dy="26" stdDeviation="24" flood-color="#000" flood-opacity=".48"/>
    </filter>
  </defs>

  <g filter="url(#ch-shadow)">
    <path d="M222 110h276v318H222V110Z" fill="url(#ch-paper)" stroke="#D8B96E" stroke-width="3"/>
    <path d="M222 86h276c27 0 49 18 49 41s-22 41-49 41H222c-27 0-49-18-49-41s22-41 49-41Z" fill="#10182F" stroke="url(#ch-roll)" stroke-width="4"/>
    <path d="M222 420h276c27 0 49 18 49 41s-22 41-49 41H222c-27 0-49-18-49-41s22-41 49-41Z" fill="#10182F" stroke="url(#ch-roll)" stroke-width="4"/>
    <path d="M222 110h276" stroke="#FFF1C2" stroke-opacity=".42" stroke-width="3"/>
    <path d="M222 428h276" stroke="#71562F" stroke-opacity=".42" stroke-width="3"/>

    <path d="M270 246h180M270 282h180M270 318h132M270 354h156" stroke="#665027" stroke-opacity=".53" stroke-width="8" stroke-linecap="round"/>
    <circle cx="246" cy="246" r="4" fill="#7A5A2C" fill-opacity=".45"/>
    <circle cx="246" cy="282" r="4" fill="#7A5A2C" fill-opacity=".45"/>
    <circle cx="246" cy="318" r="4" fill="#7A5A2C" fill-opacity=".45"/>
    <circle cx="246" cy="354" r="4" fill="#7A5A2C" fill-opacity=".45"/>
  </g>

  <g>
    <path d="M360 126 412 155v61l-52 31-52-31v-61l52-29Z" fill="url(#ch-shield)" stroke="url(#ch-roll)" stroke-width="4" stroke-linejoin="round"/>
    <path d="m331 185 18 18 40-44" stroke="#F6D46F" stroke-width="8" stroke-linecap="round" stroke-linejoin="round"/>
  </g>

  <g>
    <path d="m434 395 18 56 21-22 27 10-19-56-47 12Z" fill="#8E1833" stroke="#F6D46F" stroke-width="3" stroke-linejoin="round"/>
    <path d="m486 395-18 56-21-22-27 10 19-56 47 12Z" fill="#B22442" stroke="#F6D46F" stroke-width="3" stroke-linejoin="round"/>
    <circle cx="460" cy="382" r="34" fill="#A71937" stroke="#F6D46F" stroke-width="4"/>
    <circle cx="460" cy="382" r="24" stroke="#F6D46F" stroke-opacity=".45" stroke-width="3"/>
    <path d="m460 361 7 14 16 2-12 11 3 16-14-8-14 8 3-16-12-11 16-2 7-14Z" fill="#F6D46F"/>
  </g>
</svg>
