<svg width="2880" height="1260" shape-rendering="geometricPrecision" text-rendering="geometricPrecision" xmlns="http://www.w3.org/2000/svg" viewBox="0 0 960 420" aria-hidden="true">
  <defs>
    <linearGradient id="line" x1="0" y1="0" x2="960" y2="420" gradientUnits="userSpaceOnUse">
      <stop stop-color="#F6D46F" stop-opacity="0.78"/>
      <stop offset="0.5" stop-color="#9B6BFF" stop-opacity="0.88"/>
      <stop offset="1" stop-color="#4AC7F4" stop-opacity="0.68"/>
    </linearGradient>
    <linearGradient id="area" x1="480" y1="100" x2="480" y2="380" gradientUnits="userSpaceOnUse">
      <stop stop-color="#8B5CF6" stop-opacity="0.18"/>
      <stop offset="1" stop-color="#8B5CF6" stop-opacity="0"/>
    </linearGradient>
    <radialGradient id="node" cx="35%" cy="30%" r="75%">
      <stop stop-color="#FFF7CE"/>
      <stop offset="0.35" stop-color="#F2C94C"/>
      <stop offset="1" stop-color="#ECA51D"/>
    </radialGradient>
    <filter id="node-glow" x="-220%" y="-220%" width="540%" height="540%">
      <feGaussianBlur stdDeviation="11"/>
    </filter>
  </defs>
  <path d="M91 286L205 167l133 72 128-129 139 87 110-65 154 118V380H91Z" fill="url(#area)"/>
  <path d="M91 286L205 167l133 72 128-129 139 87 110-65 154 118" fill="none" stroke="url(#line)" stroke-width="3.5" stroke-linecap="round" stroke-linejoin="round" opacity="0.9"/>
  <path d="M118 330C248 305 319 342 430 292S668 246 846 302" fill="none" stroke="#56C7F5" stroke-width="1.4" stroke-dasharray="5 12" opacity="0.22"/>
  <g fill="#F2C94C" opacity="0.28" filter="url(#node-glow)">
    <circle cx="91" cy="286" r="11"/><circle cx="205" cy="167" r="10"/><circle cx="338" cy="239" r="12"/><circle cx="466" cy="110" r="12"/><circle cx="605" cy="197" r="14"/><circle cx="715" cy="132" r="10"/><circle cx="869" cy="250" r="12"/>
  </g>
  <g fill="url(#node)">
    <circle cx="91" cy="286" r="7"/><circle cx="205" cy="167" r="6"/><circle cx="338" cy="239" r="8"/><circle cx="466" cy="110" r="7"/><circle cx="605" cy="197" r="9"/><circle cx="715" cy="132" r="6"/><circle cx="869" cy="250" r="8"/>
  </g>
  <g fill="#FFFFFF" opacity="0.68">
    <circle cx="145" cy="84" r="2"/><circle cx="286" cy="54" r="2.5"/><circle cx="521" cy="61" r="2"/><circle cx="808" cy="76" r="2"/><circle cx="760" cy="323" r="2.5"/><circle cx="404" cy="344" r="2"/><circle cx="172" cy="354" r="2"/><circle cx="650" cy="72" r="1.5"/><circle cx="249" cy="314" r="1.5"/>
  </g>
</svg>
