<svg xmlns="http://www.w3.org/2000/svg" viewBox="0 0 720 540" fill="none">
  <defs>
    <linearGradient id="ir-line" x1="145" y1="100" x2="575" y2="460" gradientUnits="userSpaceOnUse"><stop stop-color="#FB7185"/><stop offset=".46" stop-color="#A675FF"/><stop offset="1" stop-color="#56C7F5"/></linearGradient>
    <radialGradient id="ir-aura" cx="0" cy="0" r="1" gradientTransform="translate(360 270) rotate(90) scale(250 305)" gradientUnits="userSpaceOnUse"><stop stop-color="#FB7185" stop-opacity=".18"/><stop offset=".55" stop-color="#8B5CF6" stop-opacity=".09"/><stop offset="1" stop-color="#8B5CF6" stop-opacity="0"/></radialGradient>
    <filter id="ir-shadow" x="-25%" y="-25%" width="150%" height="170%"><feDropShadow dx="0" dy="25" stdDeviation="25" flood-color="#000" flood-opacity=".5"/></filter>
  </defs>
  <ellipse cx="360" cy="270" rx="310" ry="242" fill="url(#ir-aura)"/>
  <g filter="url(#ir-shadow)">
    <circle cx="360" cy="280" r="205" fill="#091020" stroke="url(#ir-line)" stroke-width="3"/>
    <circle cx="360" cy="280" r="151" stroke="#56C7F5" stroke-opacity=".22" stroke-width="2"/>
    <circle cx="360" cy="280" r="94" stroke="#A675FF" stroke-opacity=".26" stroke-width="2"/>
    <path d="M155 280h410M360 75v410" stroke="#56C7F5" stroke-opacity=".18" stroke-width="2"/>
    <path d="M360 280 506 136A205 205 0 0 1 565 280Z" fill="url(#ir-line)" fill-opacity=".12"/>
    <path d="M360 280 506 136" stroke="url(#ir-line)" stroke-width="5" stroke-linecap="round"/>
    <circle cx="360" cy="280" r="13" fill="#F6D46F"/>
  </g>
  <g><circle cx="474" cy="188" r="13" fill="#FB7185"/><circle cx="248" cy="340" r="10" fill="#56C7F5"/><circle cx="424" cy="403" r="9" fill="#A675FF"/><path d="M474 163v-20M474 233v-20M449 188h-20M519 188h-20" stroke="#FB7185" stroke-width="3" stroke-linecap="round"/></g>
  <g transform="translate(484 315)"><path d="m64 0 60 35v70c0 52-31 87-60 107-29-20-60-55-60-107V35L64 0Z" fill="#0A1022" stroke="url(#ir-line)" stroke-width="3"/><path d="m38 103 18 18 34-42" stroke="#5EE19D" stroke-width="7" stroke-linecap="round" stroke-linejoin="round"/></g>
</svg>
