<svg xmlns="http://www.w3.org/2000/svg" viewBox="0 0 720 540" fill="none">
  <defs>
    <linearGradient id="rp-line" x1="118" y1="107" x2="608" y2="430" gradientUnits="userSpaceOnUse"><stop stop-color="#5EE19D"/><stop offset=".5" stop-color="#F6D46F"/><stop offset="1" stop-color="#A675FF"/></linearGradient>
    <radialGradient id="rp-aura" cx="0" cy="0" r="1" gradientTransform="translate(360 270) rotate(90) scale(225 308)" gradientUnits="userSpaceOnUse"><stop stop-color="#5EE19D" stop-opacity=".18"/><stop offset="1" stop-color="#8B5CF6" stop-opacity="0"/></radialGradient>
    <filter id="rp-shadow" x="-30%" y="-30%" width="160%" height="180%"><feDropShadow dx="0" dy="24" stdDeviation="24" flood-color="#000" flood-opacity=".48"/></filter>
  </defs>
  <ellipse cx="360" cy="270" rx="307" ry="232" fill="url(#rp-aura)"/>
  <path d="M111 333c74-95 149-134 225-115 67 17 112 96 171 82 43-10 71-57 101-98" stroke="url(#rp-line)" stroke-width="5" stroke-linecap="round" stroke-dasharray="10 14" opacity=".48"/>
  <g filter="url(#rp-shadow)">
    <g transform="translate(90 278)"><circle cx="62" cy="62" r="61" fill="#0A1022" stroke="#56C7F5" stroke-width="3"/><circle cx="62" cy="45" r="18" stroke="#56C7F5" stroke-width="4"/><path d="M27 93c6-22 20-34 35-34s29 12 35 34" stroke="#56C7F5" stroke-width="4" stroke-linecap="round"/></g>
    <g transform="translate(298 145)"><rect width="126" height="126" rx="34" fill="#0A1022" stroke="#F6D46F" stroke-width="4"/><path d="m63 29 32 19v37l-32 19-32-19V48l32-19Z" stroke="#F6D46F" stroke-width="4"/><path d="m48 66 10 10 22-24" stroke="#5EE19D" stroke-width="5" stroke-linecap="round" stroke-linejoin="round"/></g>
    <g transform="translate(506 132)"><circle cx="62" cy="62" r="61" fill="#0A1022" stroke="#A675FF" stroke-width="3"/><circle cx="62" cy="45" r="18" stroke="#A675FF" stroke-width="4"/><path d="M27 93c6-22 20-34 35-34s29 12 35 34" stroke="#A675FF" stroke-width="4" stroke-linecap="round"/></g>
  </g>
</svg>
