<svg width="2160" height="1680" shape-rendering="geometricPrecision" text-rendering="geometricPrecision" xmlns="http://www.w3.org/2000/svg" viewBox="0 0 720 560" fill="none">
  <defs>
    <linearGradient id="book" x1="145" y1="152" x2="566" y2="456" gradientUnits="userSpaceOnUse">
      <stop stop-color="#F7E7B0"/>
      <stop offset="0.55" stop-color="#D9C18B"/>
      <stop offset="1" stop-color="#8B7048"/>
    </linearGradient>
    <linearGradient id="magic" x1="226" y1="132" x2="502" y2="392" gradientUnits="userSpaceOnUse">
      <stop stop-color="#F6D46F"/>
      <stop offset="0.5" stop-color="#A675FF"/>
      <stop offset="1" stop-color="#56C7F5"/>
    </linearGradient>
    <radialGradient id="aura" cx="0" cy="0" r="1" gradientTransform="translate(360 270) rotate(90) scale(245 290)" gradientUnits="userSpaceOnUse">
      <stop stop-color="#8B5CF6" stop-opacity="0.28"/>
      <stop offset="1" stop-color="#8B5CF6" stop-opacity="0"/>
    </radialGradient>
    <filter id="rp-shadow" x="-25%" y="-25%" width="150%" height="170%">
      <feDropShadow dx="0" dy="26" stdDeviation="28" flood-color="#000" flood-opacity="0.46"/>
    </filter>
  </defs>
  <circle cx="360" cy="268" r="246" fill="url(#aura)"/>
  <circle cx="360" cy="268" r="212" stroke="#B58CFF" stroke-opacity="0.15"/>
  <circle cx="360" cy="268" r="176" stroke="#56C7F5" stroke-opacity="0.12" stroke-dasharray="7 13"/>
  <g filter="url(#rp-shadow)">
    <path d="M119 214c81-31 161-15 241 49 80-64 160-80 241-49v250c-82-28-162-10-241 51-79-61-159-79-241-51V214Z" fill="#0D142B" stroke="url(#magic)" stroke-opacity="0.75" stroke-width="3"/>
    <path d="M138 229c70-22 140-3 209 54v203c-68-41-138-53-209-35V229ZM582 229c-70-22-140-3-209 54v203c68-41 138-53 209-35V229Z" fill="url(#book)" fill-opacity="0.92"/>
    <path d="M360 265v248" stroke="#F6D46F" stroke-opacity="0.66" stroke-width="3"/>
    <path d="M178 290c44-6 86 4 127 30M178 331c44-6 86 4 127 30M178 372c44-6 86 4 127 30M542 290c-44-6-86 4-127 30M542 331c-44-6-86 4-127 30M542 372c-44-6-86 4-127 30" stroke="#544325" stroke-opacity="0.54" stroke-width="6" stroke-linecap="round"/>
  </g>
  <g transform="translate(304 98)">
    <path d="m56 0 52 30v60l-52 30L4 90V30L56 0Z" fill="#111936" stroke="url(#magic)" stroke-width="3"/>
    <path d="m56 0 18 40 34-10-27 28 27 32-40-11-12 41-12-41L4 90l27-32L4 30l34 10L56 0Z" stroke="url(#magic)" stroke-opacity="0.62" stroke-width="2"/>
    <circle cx="56" cy="59" r="8" fill="#F6D46F"/>
  </g>
  <path d="M530 88c-38 66-72 132-101 199" stroke="#F6D46F" stroke-width="8" stroke-linecap="round"/>
  <path d="M530 88c-25 9-46 25-61 48 27 2 49-6 67-24-3 31-17 57-42 76 29-2 50-14 66-37 1 29-9 51-29 68" fill="#F6D46F" fill-opacity="0.16" stroke="url(#magic)" stroke-width="3" stroke-linejoin="round"/>
  <g fill="#F6D46F">
    <circle cx="164" cy="142" r="4"/><circle cx="236" cy="79" r="3"/><circle cx="602" cy="188" r="4"/><circle cx="89" cy="342" r="3"/>
  </g>
  <g fill="#56C7F5">
    <circle cx="196" cy="112" r="3"/><circle cx="626" cy="292" r="3"/><circle cx="562" cy="62" r="3"/>
  </g>
</svg>
