<svg xmlns="http://www.w3.org/2000/svg" viewBox="0 0 720 540" fill="none">
  <defs>
    <linearGradient id="tv-frame" x1="122" y1="92" x2="612" y2="456" gradientUnits="userSpaceOnUse">
      <stop stop-color="#56C7F5"/>
      <stop offset=".52" stop-color="#A675FF"/>
      <stop offset="1" stop-color="#F6D46F"/>
    </linearGradient>
    <linearGradient id="tv-shield" x1="280" y1="150" x2="401" y2="390" gradientUnits="userSpaceOnUse">
      <stop stop-color="#132341"/>
      <stop offset="1" stop-color="#091326"/>
    </linearGradient>
    <filter id="tv-shadow" x="-25%" y="-25%" width="150%" height="175%">
      <feDropShadow dx="0" dy="26" stdDeviation="24" flood-color="#000" flood-opacity=".48"/>
    </filter>
  </defs>

  <g filter="url(#tv-shadow)">
    <rect x="126" y="96" width="468" height="356" rx="52" fill="#080F20" stroke="url(#tv-frame)" stroke-width="4"/>
    <rect x="164" y="134" width="392" height="280" rx="36" fill="#0D1730" stroke="#56C7F5" stroke-opacity=".42" stroke-width="3"/>

    <circle cx="342" cy="274" r="104" fill="#081121" stroke="url(#tv-frame)" stroke-width="4"/>
    <circle cx="342" cy="274" r="72" stroke="#A675FF" stroke-opacity=".62" stroke-width="4"/>
    <circle cx="342" cy="274" r="44" fill="#0C1830" stroke="#56C7F5" stroke-opacity=".45" stroke-width="3"/>

    <path d="M342 170v38M342 340v38M238 274h38M408 274h38M268 200l27 27M389 321l27 27M416 200l-27 27M295 321l-27 27" stroke="#A675FF" stroke-opacity=".52" stroke-width="5" stroke-linecap="round"/>
    <circle cx="342" cy="274" r="12" fill="#F6D46F"/>

    <path d="M594 206h30v136h-30" stroke="#F6D46F" stroke-width="8" stroke-linecap="round" stroke-linejoin="round"/>
    <circle cx="178" cy="148" r="6" fill="#56C7F5" fill-opacity=".55"/>
    <circle cx="542" cy="400" r="6" fill="#A675FF" fill-opacity=".55"/>
  </g>

  <g>
    <path d="M342 142 411 181v78c0 61-36 104-69 127-33-23-69-66-69-127v-78l69-39Z" fill="url(#tv-shield)" stroke="url(#tv-frame)" stroke-width="4" stroke-linejoin="round"/>
    <path d="M342 161 391 189v68c0 45-24 79-49 99-25-20-49-54-49-99v-68l49-28Z" stroke="#56C7F5" stroke-opacity=".25" stroke-width="3"/>
    <rect x="308" y="241" width="68" height="60" rx="14" fill="#0A1429" stroke="#F6D46F" stroke-width="6"/>
    <path d="M320 241v-20c0-20 10-37 22-37s22 17 22 37v20" stroke="#F6D46F" stroke-width="6" stroke-linecap="round"/>
    <circle cx="342" cy="270" r="5" fill="#F6D46F"/>
    <path d="M342 275v10" stroke="#F6D46F" stroke-width="5" stroke-linecap="round"/>
  </g>
</svg>
