<svg xmlns="http://www.w3.org/2000/svg" viewBox="0 0 24 24" fill="none">
  <defs><linearGradient id="a" x1="3" y1="3" x2="21" y2="21" gradientUnits="userSpaceOnUse"><stop stop-color="#FFFFFF"/><stop offset="1" stop-color="#F7D66F"/></linearGradient></defs>
  <path d="M6.2 6.7A13.5 13.5 0 0 1 9.4 5.5l.6 1.2a10.5 10.5 0 0 1 4 0l.6-1.2a13.5 13.5 0 0 1 3.2 1.2c1.9 2.8 2.5 5.6 2.2 8.4a12.8 12.8 0 0 1-4 2l-1-1.5c.6-.2 1.1-.5 1.7-.8-3.2 1.5-6.2 1.5-9.4 0 .6.3 1.1.6 1.7.8L8 17.1a12.8 12.8 0 0 1-4-2c-.3-2.8.3-5.6 2.2-8.4Z" stroke="url(#a)" stroke-width="1.65" stroke-linejoin="round"/>
  <circle cx="9" cy="11.7" r="1" fill="#F7D66F"/><circle cx="15" cy="11.7" r="1" fill="#A988FF"/>
</svg>
