<svg width="512" height="512" shape-rendering="geometricPrecision" text-rendering="geometricPrecision" xmlns="http://www.w3.org/2000/svg" viewBox="0 0 64 64" fill="none">
  <defs><linearGradient id="economy-a" x1="8" y1="9" x2="56" y2="57" gradientUnits="userSpaceOnUse"><stop stop-color="#FFE38B"/><stop offset=".5" stop-color="#F0B94A"/><stop offset="1" stop-color="#7FE2B3"/></linearGradient></defs>
  <ellipse cx="25" cy="17" rx="14" ry="7" stroke="url(#economy-a)" stroke-width="3"/>
  <path d="M11 17v10c0 3.9 6.3 7 14 7 2.7 0 5.2-.4 7.3-1.1M11 27v10c0 3.9 6.3 7 14 7 1.3 0 2.6-.1 3.8-.3" stroke="url(#economy-a)" stroke-width="3"/>
  <circle cx="43" cy="43" r="13" stroke="url(#economy-a)" stroke-width="3"/>
  <path d="M47.5 36.5h-6a3.5 3.5 0 0 0 0 7h3a3.5 3.5 0 0 1 0 7h-6M43 33v20" stroke="#FFF4C8" stroke-width="2.6" stroke-linecap="round"/>
</svg>
