<svg width="512" height="512" shape-rendering="geometricPrecision" text-rendering="geometricPrecision" xmlns="http://www.w3.org/2000/svg" viewBox="0 0 64 64" fill="none">
  <defs>
    <linearGradient id="boosts-a" x1="8" y1="8" x2="57" y2="58" gradientUnits="userSpaceOnUse">
      <stop stop-color="#FF8E9E"/>
      <stop offset=".45" stop-color="#B58CFF"/>
      <stop offset="1" stop-color="#56C7F5"/>
    </linearGradient>
  </defs>
  <path d="M32 7 43 18 32 29 21 18 32 7Z" fill="#B58CFF" fill-opacity=".12" stroke="url(#boosts-a)" stroke-width="2.8" stroke-linejoin="round"/>
  <path d="m32 13 5 5-5 5-5-5 5-5Z" fill="#FFF4C8"/>
  <path d="M15.5 28.5a20 20 0 0 0 32 22" stroke="url(#boosts-a)" stroke-width="3" stroke-linecap="round"/>
  <path d="M48.5 35.5a20 20 0 0 0-32-22" stroke="url(#boosts-a)" stroke-width="3" stroke-linecap="round"/>
  <path d="m45 47 4 4 5-7M19 17l-4-4-5 7" stroke="#FFF4C8" stroke-width="2.7" stroke-linecap="round" stroke-linejoin="round"/>
  <path d="M32 36 39 43 32 50 25 43l7-7Z" fill="#56C7F5" fill-opacity=".12" stroke="url(#boosts-a)" stroke-width="2.7" stroke-linejoin="round"/>
</svg>
