<svg width="512" height="512" shape-rendering="geometricPrecision" text-rendering="geometricPrecision" xmlns="http://www.w3.org/2000/svg" viewBox="0 0 64 64" fill="none">
  <defs>
    <linearGradient id="journey-a" x1="8" y1="54" x2="56" y2="8" gradientUnits="userSpaceOnUse">
      <stop stop-color="#56C7F5"/>
      <stop offset=".52" stop-color="#7FE2B3"/>
      <stop offset="1" stop-color="#F7D66F"/>
    </linearGradient>
    <filter id="journey-glow" x="-30%" y="-30%" width="160%" height="160%">
      <feGaussianBlur stdDeviation="2.2"/>
    </filter>
  </defs>
  <path d="M10 52C13 40 20 38 28 36c9-2 9-11 14-17 3-4 7-6 12-7" stroke="url(#journey-a)" stroke-width="7" stroke-linecap="round" opacity=".14" filter="url(#journey-glow)"/>
  <path d="M10 52C13 40 20 38 28 36c9-2 9-11 14-17 3-4 7-6 12-7" stroke="url(#journey-a)" stroke-width="3.2" stroke-linecap="round"/>
  <circle cx="10" cy="52" r="5.4" fill="#091426" stroke="#56C7F5" stroke-width="2.8"/>
  <circle cx="10" cy="52" r="1.8" fill="#56C7F5"/>
  <path d="M47 8h9v9M56 8 43 21" stroke="#FFF4C8" stroke-width="3.2" stroke-linecap="round" stroke-linejoin="round"/>
</svg>
