<svg xmlns="http://www.w3.org/2000/svg" viewBox="0 0 64 64" fill="none">
  <defs><linearGradient id="docs-a" x1="8" y1="8" x2="56" y2="56" gradientUnits="userSpaceOnUse"><stop stop-color="#56C7F5"/><stop offset=".5" stop-color="#8F75FF"/><stop offset="1" stop-color="#F7D66F"/></linearGradient></defs>
  <path d="M7 13c8.7-3.1 17-1.7 25 4.2 8-5.9 16.3-7.3 25-4.2v39c-8.6-2.9-16.9-1.4-25 4.3-8.1-5.7-16.4-7.2-25-4.3V13Z" stroke="url(#docs-a)" stroke-width="3" stroke-linejoin="round"/>
  <path d="M32 17v39M14 23c4.2-1 8.1-.5 11.7 1.6M50 23c-4.2-1-8.1-.5-11.7 1.6M14 33c4.2-1 8.1-.5 11.7 1.6M50 33c-4.2-1-8.1-.5-11.7 1.6" stroke="url(#docs-a)" stroke-width="2.3" stroke-linecap="round"/>
</svg>
