<svg width="512" height="512" shape-rendering="geometricPrecision" text-rendering="geometricPrecision" xmlns="http://www.w3.org/2000/svg" viewBox="0 0 96 96" role="img" aria-label="Discord"><rect x="8" y="12" width="80" height="72" rx="24" fill="#5865F2"/><path d="M65 33a45 45 0 00-11-4l-1.5 3a42 42 0 00-9 0L42 29a45 45 0 00-11 4c-7 10-9 20-8 30a45 45 0 0014 7l3-5a27 27 0 01-5-2l1-2c9 4 17 4 26 0l1 2a27 27 0 01-5 2l3 5a45 45 0 0014-7c1-10-1-20-8-30z" fill="#fff"/><circle cx="39" cy="50" r="4" fill="#5865F2"/><circle cx="57" cy="50" r="4" fill="#5865F2"/></svg>
