<svg width="512" height="512" shape-rendering="geometricPrecision" text-rendering="geometricPrecision" xmlns="http://www.w3.org/2000/svg" viewBox="0 0 64 64" fill="none">
  <defs>
    <linearGradient id="a" x1="10" y1="50" x2="54" y2="12" gradientUnits="userSpaceOnUse">
      <stop stop-color="#9A6CFF"/>
      <stop offset=".48" stop-color="#F7C94D"/>
      <stop offset="1" stop-color="#FFF2B2"/>
    </linearGradient>
  </defs>
  <ellipse cx="28" cy="17" rx="14" ry="7" stroke="url(#a)" stroke-width="3.3"/>
  <path d="M14 17v10c0 3.9 6.3 7 14 7 2.8 0 5.4-.4 7.6-1.2M14 27v10c0 3.9 6.3 7 14 7 2.1 0 4.1-.2 5.9-.7" stroke="url(#a)" stroke-width="3.3" stroke-linecap="round"/>
  <path d="m37 48 7-7 5 5 8-10M50 36h7v7" stroke="#76F0B2" stroke-width="3.6" stroke-linecap="round" stroke-linejoin="round"/>
  <path d="M28 12v10m-4-7.8c0-1.3 1.8-2.2 4-2.2s4 .9 4 2.2-1.8 2.2-4 2.2-4 .9-4 2.2 1.8 2.2 4 2.2 4-.9 4-2.2" stroke="#FFF4C8" stroke-width="2" stroke-linecap="round"/>
</svg>
