<svg width="512" height="512" shape-rendering="geometricPrecision" text-rendering="geometricPrecision" xmlns="http://www.w3.org/2000/svg" viewBox="0 0 72 72" fill="none">
  <defs>
    <linearGradient id="robot" x1="12" y1="9" x2="59" y2="62" gradientUnits="userSpaceOnUse">
      <stop stop-color="#FFE27D"/>
      <stop offset=".28" stop-color="#FF8CA5"/>
      <stop offset=".58" stop-color="#B382FF"/>
      <stop offset="1" stop-color="#58DFC8"/>
    </linearGradient>
    <linearGradient id="face" x1="20" y1="25" x2="50" y2="51" gradientUnits="userSpaceOnUse">
      <stop stop-color="#F4E6FF"/>
      <stop offset=".46" stop-color="#B6A3FF"/>
      <stop offset="1" stop-color="#7D8CFF"/>
    </linearGradient>
    <linearGradient id="badge" x1="47" y1="43" x2="66" y2="63" gradientUnits="userSpaceOnUse">
      <stop stop-color="#FF839D"/>
      <stop offset="1" stop-color="#62E5C3"/>
    </linearGradient>
  </defs>
  <g transform="translate(1)">
    <path d="M35 8v9m-5-9h10" stroke="url(#robot)" stroke-width="2.7" stroke-linecap="round"/>
    <circle cx="35" cy="6" r="3.2" fill="#FFE27D"/>
    <path d="M18 29c0-7.2 5.8-13 13-13h8c7.2 0 13 5.8 13 13v16c0 7.2-5.8 13-13 13h-8c-7.2 0-13-5.8-13-13V29Z" fill="#11172F" stroke="url(#robot)" stroke-width="2.8"/>
    <path d="M18 32h-4.5a3.5 3.5 0 0 0-3.5 3.5v5a3.5 3.5 0 0 0 3.5 3.5H18m34-12h4.5a3.5 3.5 0 0 1 3.5 3.5v5a3.5 3.5 0 0 1-3.5 3.5H52" stroke="url(#robot)" stroke-width="2.4"/>
  </g>
  <path d="M25 29.5a28 28 0 0 1 6.8-2.5l1 2a26 26 0 0 1 8.4 0l1-2a28 28 0 0 1 6.8 2.5c3.4 4.9 4.4 9.7 3.9 14.6a27 27 0 0 1-7.2 3.7L44 44.6c1.1-.4 2.1-.9 3.1-1.5-5.3 2.5-10.4 2.5-15.7 0 1 .6 2 1.1 3.1 1.5l-1.7 2.7a27 27 0 0 1-7.2-3.7c-.5-4.9.5-9.7 3.9-14.6Z" fill="url(#face)"/>
  <circle cx="31.5" cy="37.5" r="2.2" fill="#12172F"/>
  <circle cx="40.5" cy="37.5" r="2.2" fill="#12172F"/>
  <path d="M31 50c3.3 1.5 6.7 1.5 10 0" stroke="url(#robot)" stroke-width="2" stroke-linecap="round" opacity=".82"/>
  <circle cx="57" cy="55" r="10.5" fill="#0B1228" stroke="url(#badge)" stroke-width="2.2"/>
  <path d="M57 50v10m-5-5h10" stroke="url(#badge)" stroke-width="2.6" stroke-linecap="round"/>
</svg>
