<svg width="512" height="512" shape-rendering="geometricPrecision" text-rendering="geometricPrecision" xmlns="http://www.w3.org/2000/svg" viewBox="0 0 64 64" fill="none">
  <defs><linearGradient id="a" x1="10" y1="8" x2="54" y2="57" gradientUnits="userSpaceOnUse"><stop stop-color="#67D7FF"/><stop offset="1" stop-color="#9B7BFF"/></linearGradient></defs>
  <path d="M32 18c-5-5-11.3-7.3-19-7v37c7.7-.3 14 2 19 7 5-5 11.3-7.3 19-7V11c-7.7-.3-14 2-19 7Z" stroke="url(#a)" stroke-width="3" stroke-linejoin="round"/>
  <path d="M32 18v37M20 23h6M20 31h6M38 23h6M38 31h6" stroke="url(#a)" stroke-width="2.5" stroke-linecap="round"/>
  <path d="m48 7 1.2 3.8L53 12l-3.8 1.2L48 17l-1.2-3.8L43 12l3.8-1.2L48 7Z" fill="#F7D66F"/>
</svg>
