<svg xmlns="http://www.w3.org/2000/svg" viewBox="0 0 96 96" role="img" aria-label="Guild community">
  <defs>
    <linearGradient id="gold" x1="17" y1="15" x2="80" y2="82" gradientUnits="userSpaceOnUse"><stop stop-color="#FFF0A6"/><stop offset="0.5" stop-color="#F8D86B"/><stop offset="1" stop-color="#D99F21"/></linearGradient>
    <filter id="shadow" x="-30%" y="-30%" width="160%" height="170%"><feDropShadow dx="0" dy="5" stdDeviation="4" flood-color="#000" flood-opacity="0.72"/></filter>
  </defs>
  <g filter="url(#shadow)">
    <circle cx="48" cy="31" r="12" fill="url(#gold)"/>
    <circle cx="25" cy="40" r="9" fill="url(#gold)"/>
    <circle cx="71" cy="40" r="9" fill="url(#gold)"/>
    <path d="M25 53c-10 0-17 7-17 17v4h20c1-8 5-14 11-18-4-2-8-3-14-3Zm46 0c10 0 17 7 17 17v4H68c-1-8-5-14-11-18 4-2 8-3 14-3Z" fill="url(#gold)"/>
    <path d="M48 48c-14 0-24 10-24 25v5h48v-5c0-15-10-25-24-25Z" fill="url(#gold)"/>
  </g>
  <path d="M39 65c3-3 6-5 9-5s6 2 9 5" fill="none" stroke="#4A2B05" stroke-width="5" stroke-linecap="round" opacity="0.9"/>
</svg>
