<svg width="512" height="512" text-rendering="geometricPrecision" xmlns="http://www.w3.org/2000/svg" viewBox="0 0 96 96" role="img" aria-label="Guild community" shape-rendering="geometricPrecision">
  <defs>
    <linearGradient id="guildGold" x1="18" y1="14" x2="80" y2="84" gradientUnits="userSpaceOnUse">
      <stop stop-color="#FFF6B8"/>
      <stop offset="0.5" stop-color="#F5D361"/>
      <stop offset="1" stop-color="#C88413"/>
    </linearGradient>
  </defs>
  <circle cx="48" cy="29" r="12" fill="url(#guildGold)" stroke="#704006" stroke-width="3"/>
  <circle cx="23" cy="40" r="9" fill="url(#guildGold)" stroke="#704006" stroke-width="3"/>
  <circle cx="73" cy="40" r="9" fill="url(#guildGold)" stroke="#704006" stroke-width="3"/>
  <path d="M8 75v-4c0-12 7-20 18-20 6 0 11 2 14 6-6 5-9 12-9 22H12a4 4 0 0 1-4-4Zm80 0v-4c0-12-7-20-18-20-6 0-11 2-14 6 6 5 9 12 9 22h19a4 4 0 0 0 4-4Z" fill="url(#guildGold)" stroke="#704006" stroke-width="3" stroke-linejoin="round"/>
  <path d="M25 80v-5c0-17 9-27 23-27s23 10 23 27v5Z" fill="url(#guildGold)" stroke="#704006" stroke-width="3" stroke-linejoin="round"/>
  <path d="M39 66c3-3 6-5 9-5s6 2 9 5" fill="none" stroke="#704006" stroke-width="4" stroke-linecap="round"/>
</svg>
