<svg xmlns="http://www.w3.org/2000/svg" viewBox="0 0 32 32" fill="none">
  <defs>
    <linearGradient id="edge" x1="6" y1="4" x2="27" y2="28" gradientUnits="userSpaceOnUse">
      <stop stop-color="#17203D"/>
      <stop offset="1" stop-color="#080C1B"/>
    </linearGradient>
  </defs>
  <path d="M16 3.5v3.2m-2.1-3.2h4.2" stroke="#10172D" stroke-width="1.8" stroke-linecap="round"/>
  <circle cx="16" cy="3.4" r="1.45" fill="#10172D"/>
  <path d="M8 13.1A7.1 7.1 0 0 1 15.1 6h1.8a7.1 7.1 0 0 1 7.1 7.1v7.3a7.1 7.1 0 0 1-7.1 7.1h-1.8A7.1 7.1 0 0 1 8 20.4v-7.3Z" fill="url(#edge)"/>
  <path d="M8 14h-2a2 2 0 0 0-2 2v2.2a2 2 0 0 0 2 2h2m16-6.2h2a2 2 0 0 1 2 2v2.2a2 2 0 0 1-2 2h-2" stroke="#10172D" stroke-width="1.8" stroke-linecap="round"/>
  <path d="M11.2 13.3c1.3-.8 3-1.2 4.8-1.2s3.5.4 4.8 1.2c.7 1.8.8 3.6.3 5.4a9 9 0 0 1-2.6 1.5l-.8-1.2c.6-.2 1.1-.5 1.5-.8-2.1 1-4.3 1-6.4 0 .4.3.9.6 1.5.8l-.8 1.2a9 9 0 0 1-2.6-1.5c-.5-1.8-.4-3.6.3-5.4Z" fill="#D8C9FF"/>
  <circle cx="13.6" cy="16.2" r="1" fill="#0A1022"/>
  <circle cx="18.4" cy="16.2" r="1" fill="#0A1022"/>
  <circle cx="23.8" cy="23.7" r="5.3" fill="#F4D86F" stroke="#0A1022" stroke-width="1.5"/>
  <path d="M23.8 20.9v5.6m-2.8-2.8h5.6" stroke="#0A1022" stroke-width="1.8" stroke-linecap="round"/>
</svg>
