<svg width="512" height="512" shape-rendering="geometricPrecision" text-rendering="geometricPrecision" xmlns="http://www.w3.org/2000/svg" viewBox="0 0 48 48" fill="none">
  <defs>
    <linearGradient id="rp-a" x1="9" y1="8" x2="39" y2="40" gradientUnits="userSpaceOnUse">
      <stop stop-color="#F6D46F"/>
      <stop offset="0.52" stop-color="#B58CFF"/>
      <stop offset="1" stop-color="#56C7F5"/>
    </linearGradient>
  </defs>
  <path d="M8.5 12.5c5.4-2.5 10.5-1.8 15.5 2.1 5-3.9 10.1-4.6 15.5-2.1v24c-5.5-2.2-10.6-1.4-15.5 2.2-4.9-3.6-10-4.4-15.5-2.2v-24Z" stroke="url(#rp-a)" stroke-width="2.4" stroke-linejoin="round"/>
  <path d="M24 14.8v23.6M13.5 17.3c2.7-.7 5.1-.2 7.2 1.3M34.5 17.3c-2.7-.7-5.1-.2-7.2 1.3" stroke="url(#rp-a)" stroke-width="2" stroke-linecap="round"/>
  <path d="m31.5 24.2 3.2 1.8v3.7l-3.2 1.8-3.2-1.8V26l3.2-1.8Z" stroke="#F6D46F" stroke-width="1.7"/>
  <circle cx="31.5" cy="27.9" r="1.2" fill="#F6D46F"/>
</svg>
