<svg width="512" height="512" shape-rendering="geometricPrecision" text-rendering="geometricPrecision" xmlns="http://www.w3.org/2000/svg" viewBox="0 0 64 64" fill="none">
  <defs><linearGradient id="lore-g" x1="8" y1="11" x2="56" y2="54" gradientUnits="userSpaceOnUse"><stop stop-color="#72E3A8"/><stop offset="0.48" stop-color="#56C7F5"/><stop offset="1" stop-color="#B17CFF"/></linearGradient></defs>
  <path d="M10 13c8-3 15-1 22 6 7-7 14-9 22-6v36c-8-3-15-1-22 6-7-7-14-9-22-6V13Z" stroke="url(#lore-g)" stroke-width="3" stroke-linejoin="round"/>
  <path d="M32 19v36M17 25c4-1 8 1 11 4M17 34c4-1 8 1 11 4M47 25c-4-1-8 1-11 4M47 34c-4-1-8 1-11 4" stroke="url(#lore-g)" stroke-opacity="0.66" stroke-width="2.4" stroke-linecap="round"/>
  <circle cx="51" cy="10" r="4" fill="#F6D46F"/>
</svg>
